<svg id="Livello_2" data-name="Livello 2" xmlns="http://www.w3.org/2000/svg" viewBox="0 0 303.37 68.7">
    <defs>
        <style>.cls-1{fill:#dddb00;}.cls-2{fill:#008c39;}</style>
    </defs>
    <title>inNews</title>
    <path class="cls-1" d="M122.2,255.17H104.31V244.84h31.08v44.43H122.2Zm-2.76-25.33c0-4.83,3.67-8.19,8.76-8.19S137,225,137,229.84s-3.67,8.06-8.75,8.06-8.76-3.21-8.76-8.06" transform="translate(-104.31 -221.65)" />
    <path class="cls-1" d="M148.52,244.84h10.75l.95,5.92h.35c3.86-3.78,8.75-7,15.36-7,10,0,14.47,6.87,14.47,18.08v27.43H177.21V263.53c0-5.91-1.7-8.54-6.52-8.54-3.51,0-5.9,1.63-9,4.63v29.65H148.52Z" transform="translate(-104.31 -221.65)" />
    <path class="cls-2" d="M201.73,230.9h13.54l12.28,29,5,12.83h.31c-.59-6.15-1.82-14.33-1.82-21.22V230.9h12.59v58.37H230.08L217.8,260.19l-5-12.76h-.3c.59,6.45,1.82,14.27,1.82,21.14v20.7H201.73Z" transform="translate(-104.31 -221.65)" />
    <polygon class="cls-2" points="153.95 9.25 192.64 9.25 192.64 20.33 167.16 20.33 167.16 32.03 188.81 32.03 188.81 43.11 167.16 43.11 167.16 56.54 193.53 56.54 193.53 67.62 153.95 67.62 153.95 9.25" />
    <path class="cls-2" d="M304.55,230.88h13.72L320,262c.15,5,.25,9.41.32,14.65h.33c.82-5.24,1.9-9.72,2.87-14.62l3.92-16.3h8.46l3.68,16.3c.93,4.77,2,9.25,2.87,14.62h.35c.11-5.37.16-9.78.3-14.62l1.67-31.11H357.6l-7.24,58.39h-14.1l-3.47-18.09A92.12,92.12,0,0,1,331.23,260H331c-.37,3.52-.85,7.44-1.55,11.15l-3.34,18.09H312.28Z" transform="translate(-104.31 -221.65)" />
    <path class="cls-2" d="M362.87,281.92l7.59-9.07c4.41,3.61,9.85,6.09,15.51,6.09s8.2-2.17,8.2-5c0-4.2-3.47-5.21-9-7.53l-7.6-3.24c-6.47-2.46-12.37-7.42-12.37-15.92,0-9.66,8.71-17.39,21.39-17.39A28.25,28.25,0,0,1,406,237.47l-6.65,8.33c-4.11-3-7.75-4.56-13.45-4.56-4.35,0-7.31,1.8-7.31,5.21s3.92,4.8,9.51,6.9l7.15,3c7.64,2.87,12.47,7.64,12.47,15.87,0,9.7-8.14,18.11-22.59,18.11a33.66,33.66,0,0,1-22.23-8.43" transform="translate(-104.31 -221.65)" />
</svg>